<?xml version="1.0" encoding="UTF-8" standalone="no"?><!DOCTYPE svg PUBLIC "-//W3C//DTD SVG 1.1//EN" "http://www.w3.org/Graphics/SVG/1.1/DTD/svg11.dtd"><!-- Generated by graphviz version 2.40.1 (20161225.0304)
 --><!-- Title: G Pages: 1 --><svg xmlns="http://www.w3.org/2000/svg" xmlns:xlink="http://www.w3.org/1999/xlink" width="290pt" height="149pt" viewBox="0.00 0.00 290.21 149.00">
<g id="graph0" class="graph" transform="scale(1 1) rotate(0) translate(4 145)">
<title>G</title>
<polygon fill="#ffffff" stroke="transparent" points="-4,4 -4,-145 286.2132,-145 286.2132,4 -4,4"/>
<!-- 0 -->
<g id="node1" class="node">
<title>0</title>
<ellipse fill="none" stroke="#000000" cx="27.2132" cy="-116.6796" rx="27" ry="18"/>
<text text-anchor="middle" x="27.2132" y="-112.4796" font-family="Times,serif" font-size="14.00" fill="#000000">0</text>
</g>
<!-- 2 -->
<g id="node2" class="node">
<title>2</title>
<ellipse fill="none" stroke="#000000" cx="141.2132" cy="-107.6796" rx="27" ry="18"/>
<text text-anchor="middle" x="141.2132" y="-103.4796" font-family="Times,serif" font-size="14.00" fill="#000000">2</text>
</g>
<!-- 0&#45;&gt;2 -->
<g id="edge1" class="edge">
<title>0-&gt;2</title>
<path fill="none" stroke="#000000" d="M53.8678,-119.9877C66.7261,-121.0362 82.3461,-121.5059 96.2665,-119.6796 99.7349,-119.2246 103.3163,-118.58 106.8732,-117.8231"/>
<polygon fill="#000000" stroke="#000000" points="107.8132,-121.1969 116.718,-115.4564 106.1769,-114.3908 107.8132,-121.1969"/>
<text text-anchor="middle" x="84.2132" y="-124.8796" font-family="Times,serif" font-size="14.00" fill="#000000">w02</text>
</g>
<!-- 3 -->
<g id="node4" class="node">
<title>3</title>
<ellipse fill="none" stroke="#000000" cx="141.2132" cy="-34.6796" rx="27" ry="18"/>
<text text-anchor="middle" x="141.2132" y="-30.4796" font-family="Times,serif" font-size="14.00" fill="#000000">3</text>
</g>
<!-- 0&#45;&gt;3 -->
<g id="edge3" class="edge">
<title>0-&gt;3</title>
<path fill="none" stroke="#000000" d="M45.783,-103.3224C64.4149,-89.9205 93.3012,-69.1426 114.4144,-53.9559"/>
<polygon fill="#000000" stroke="#000000" points="116.5771,-56.7118 122.6514,-48.0311 112.4895,-51.0291 116.5771,-56.7118"/>
<text text-anchor="middle" x="84.2132" y="-86.8796" font-family="Times,serif" font-size="14.00" fill="#000000">w03</text>
</g>
<!-- 4 -->
<g id="node5" class="node">
<title>4</title>
<ellipse fill="none" stroke="#000000" cx="255.2132" cy="-71.6796" rx="27" ry="18"/>
<text text-anchor="middle" x="255.2132" y="-67.4796" font-family="Times,serif" font-size="14.00" fill="#000000">4</text>
</g>
<!-- 2&#45;&gt;4 -->
<g id="edge5" class="edge">
<title>2-&gt;4</title>
<path fill="none" stroke="#000000" d="M165.6691,-99.9567C181.748,-94.8792 203.0227,-88.1608 220.8004,-82.5468"/>
<polygon fill="#000000" stroke="#000000" points="222.3159,-85.7387 230.7978,-79.3897 220.208,-79.0636 222.3159,-85.7387"/>
<text text-anchor="middle" x="198.2132" y="-96.8796" font-family="Times,serif" font-size="14.00" fill="#000000">w24</text>
</g>
<!-- 1 -->
<g id="node3" class="node">
<title>1</title>
<ellipse fill="none" stroke="#000000" cx="27.2132" cy="-24.6796" rx="27" ry="18"/>
<text text-anchor="middle" x="27.2132" y="-20.4796" font-family="Times,serif" font-size="14.00" fill="#000000">1</text>
</g>
<!-- 1&#45;&gt;2 -->
<g id="edge2" class="edge">
<title>1-&gt;2</title>
<path fill="none" stroke="#000000" d="M53.5733,-29.1154C67.2515,-32.3691 83.684,-37.8468 96.2665,-46.8796 108.8427,-55.9079 119.3708,-69.5218 127.0687,-81.5799"/>
<polygon fill="#000000" stroke="#000000" points="124.2262,-83.6437 132.3907,-90.3959 130.2189,-80.0261 124.2262,-83.6437"/>
<text text-anchor="middle" x="84.2132" y="-50.8796" font-family="Times,serif" font-size="14.00" fill="#000000">w12</text>
</g>
<!-- 1&#45;&gt;3 -->
<g id="edge4" class="edge">
<title>1-&gt;3</title>
<path fill="none" stroke="#000000" d="M47.4997,-12.6259C61.2813,-5.9664 79.9074,.0509 96.2665,-4.8796 103.1325,-6.949 109.9135,-10.4477 116.0457,-14.3352"/>
<polygon fill="#000000" stroke="#000000" points="114.2859,-17.3737 124.5002,-20.1878 118.2702,-11.6182 114.2859,-17.3737"/>
<text text-anchor="middle" x="84.2132" y="-8.8796" font-family="Times,serif" font-size="14.00" fill="#000000">w13</text>
</g>
<!-- 3&#45;&gt;4 -->
<g id="edge6" class="edge">
<title>3-&gt;4</title>
<path fill="none" stroke="#000000" d="M165.6691,-42.617C181.748,-47.8356 203.0227,-54.7406 220.8004,-60.5105"/>
<polygon fill="#000000" stroke="#000000" points="220.2057,-63.9972 230.7978,-63.7553 222.3667,-57.3391 220.2057,-63.9972"/>
<text text-anchor="middle" x="198.2132" y="-59.8796" font-family="Times,serif" font-size="14.00" fill="#000000">w34</text>
</g>
</g>
</svg>